<mxfile host="app.diagrams.net" agent="Mozilla/5.0 (Windows NT 10.0; Win64; x64; rv:140.0) Gecko/20100101 Firefox/140.0" version="28.2.5">
  <diagram name="Страница — 1" id="OFNXZ44sQ_Yl0WmFCbhk">
    <mxGraphModel dx="786" dy="683" grid="1" gridSize="10" guides="1" tooltips="1" connect="1" arrows="1" fold="1" page="1" pageScale="1" pageWidth="827" pageHeight="1169" math="0" shadow="0">
      <root>
        <mxCell id="0" />
        <mxCell id="1" parent="0" />
        <mxCell id="gjJ8fdNzMMnaU77JGoAU-1" value="Вход студента" style="rounded=0;whiteSpace=wrap;html=1;" vertex="1" parent="1">
          <mxGeometry x="60" y="150" width="120" height="60" as="geometry" />
        </mxCell>
        <mxCell id="gjJ8fdNzMMnaU77JGoAU-2" value="Выбор дисциплины и тренировки" style="rounded=0;whiteSpace=wrap;html=1;" vertex="1" parent="1">
          <mxGeometry x="200" y="240" width="120" height="60" as="geometry" />
        </mxCell>
        <mxCell id="gjJ8fdNzMMnaU77JGoAU-3" value="Выполнение тренировки" style="rounded=0;whiteSpace=wrap;html=1;" vertex="1" parent="1">
          <mxGeometry x="340" y="340" width="120" height="60" as="geometry" />
        </mxCell>
        <mxCell id="gjJ8fdNzMMnaU77JGoAU-4" value="Запись результата" style="rounded=0;whiteSpace=wrap;html=1;" vertex="1" parent="1">
          <mxGeometry x="480" y="440" width="120" height="60" as="geometry" />
        </mxCell>
        <mxCell id="gjJ8fdNzMMnaU77JGoAU-5" value="Подготовка следующей тренировки" style="rounded=0;whiteSpace=wrap;html=1;" vertex="1" parent="1">
          <mxGeometry x="620" y="540" width="120" height="60" as="geometry" />
        </mxCell>
        <mxCell id="gjJ8fdNzMMnaU77JGoAU-6" value="" style="endArrow=classic;startArrow=classic;html=1;rounded=0;entryX=0;entryY=0.5;entryDx=0;entryDy=0;exitX=0;exitY=0.75;exitDx=0;exitDy=0;fillColor=#a20025;strokeColor=#6F0000;" edge="1" parent="1" source="gjJ8fdNzMMnaU77JGoAU-2">
          <mxGeometry width="50" height="50" relative="1" as="geometry">
            <mxPoint x="350" y="340" as="sourcePoint" />
            <mxPoint x="60" y="190" as="targetPoint" />
            <Array as="points">
              <mxPoint x="40" y="285" />
              <mxPoint x="40" y="190" />
            </Array>
          </mxGeometry>
        </mxCell>
        <mxCell id="gjJ8fdNzMMnaU77JGoAU-7" value="" style="edgeStyle=isometricEdgeStyle;endArrow=none;html=1;rounded=0;fillColor=#a20025;strokeColor=#6F0000;" edge="1" parent="1">
          <mxGeometry width="50" height="100" relative="1" as="geometry">
            <mxPoint x="90" y="270" as="sourcePoint" />
            <mxPoint x="80" y="285" as="targetPoint" />
          </mxGeometry>
        </mxCell>
        <mxCell id="gjJ8fdNzMMnaU77JGoAU-8" value="Данные студента" style="text;html=1;align=center;verticalAlign=middle;resizable=0;points=[];autosize=1;strokeColor=none;fillColor=none;fontSize=9;" vertex="1" parent="1">
          <mxGeometry x="50" y="250" width="100" height="20" as="geometry" />
        </mxCell>
        <mxCell id="gjJ8fdNzMMnaU77JGoAU-9" value="" style="endArrow=classic;startArrow=classic;html=1;rounded=0;entryX=0.5;entryY=0;entryDx=0;entryDy=0;exitX=0.75;exitY=0;exitDx=0;exitDy=0;fillColor=#1ba1e2;strokeColor=#006EAF;" edge="1" parent="1" source="gjJ8fdNzMMnaU77JGoAU-2" target="gjJ8fdNzMMnaU77JGoAU-1">
          <mxGeometry width="50" height="50" relative="1" as="geometry">
            <mxPoint x="560" y="60" as="sourcePoint" />
            <mxPoint x="270" y="100" as="targetPoint" />
            <Array as="points">
              <mxPoint x="290" y="60" />
              <mxPoint x="120" y="60" />
            </Array>
          </mxGeometry>
        </mxCell>
        <mxCell id="gjJ8fdNzMMnaU77JGoAU-10" value="Требования стандартов" style="text;html=1;align=center;verticalAlign=middle;resizable=0;points=[];autosize=1;strokeColor=none;fillColor=none;fontSize=10;" vertex="1" parent="1">
          <mxGeometry x="130" y="68" width="140" height="30" as="geometry" />
        </mxCell>
        <mxCell id="gjJ8fdNzMMnaU77JGoAU-11" value="" style="edgeStyle=isometricEdgeStyle;endArrow=none;html=1;rounded=0;fillColor=#1ba1e2;strokeColor=#006EAF;" edge="1" parent="1">
          <mxGeometry width="50" height="100" relative="1" as="geometry">
            <mxPoint x="250" y="60" as="sourcePoint" />
            <mxPoint x="240" y="75" as="targetPoint" />
          </mxGeometry>
        </mxCell>
        <mxCell id="gjJ8fdNzMMnaU77JGoAU-12" value="" style="endArrow=none;startArrow=classic;html=1;rounded=0;entryX=0.5;entryY=0;entryDx=0;entryDy=0;exitX=0.75;exitY=0;exitDx=0;exitDy=0;fillColor=#1ba1e2;strokeColor=#006EAF;startFill=1;endFill=0;" edge="1" parent="1" source="gjJ8fdNzMMnaU77JGoAU-3">
          <mxGeometry width="50" height="50" relative="1" as="geometry">
            <mxPoint x="460" y="240" as="sourcePoint" />
            <mxPoint x="290" y="150" as="targetPoint" />
            <Array as="points">
              <mxPoint x="430" y="60" />
              <mxPoint x="290" y="60" />
            </Array>
          </mxGeometry>
        </mxCell>
        <mxCell id="gjJ8fdNzMMnaU77JGoAU-13" value="" style="endArrow=none;startArrow=classic;html=1;rounded=0;entryX=0.5;entryY=0;entryDx=0;entryDy=0;fillColor=#1ba1e2;strokeColor=#006EAF;endFill=0;exitX=0.75;exitY=0;exitDx=0;exitDy=0;" edge="1" parent="1" source="gjJ8fdNzMMnaU77JGoAU-4">
          <mxGeometry width="50" height="50" relative="1" as="geometry">
            <mxPoint x="600" y="150" as="sourcePoint" />
            <mxPoint x="430" y="150" as="targetPoint" />
            <Array as="points">
              <mxPoint x="570" y="100" />
              <mxPoint x="570" y="60" />
              <mxPoint x="430" y="60" />
            </Array>
          </mxGeometry>
        </mxCell>
        <mxCell id="gjJ8fdNzMMnaU77JGoAU-14" value="" style="endArrow=none;startArrow=classic;html=1;rounded=0;entryX=0.5;entryY=0;entryDx=0;entryDy=0;exitX=0.667;exitY=0;exitDx=0;exitDy=0;fillColor=#1ba1e2;strokeColor=#006EAF;endFill=0;exitPerimeter=0;" edge="1" parent="1" source="gjJ8fdNzMMnaU77JGoAU-5">
          <mxGeometry width="50" height="50" relative="1" as="geometry">
            <mxPoint x="740" y="240" as="sourcePoint" />
            <mxPoint x="570" y="150" as="targetPoint" />
            <Array as="points">
              <mxPoint x="700" y="150" />
              <mxPoint x="700" y="60" />
              <mxPoint x="570" y="60" />
            </Array>
          </mxGeometry>
        </mxCell>
        <mxCell id="gjJ8fdNzMMnaU77JGoAU-15" value="" style="endArrow=classic;startArrow=classic;html=1;rounded=0;exitX=0.5;exitY=1;exitDx=0;exitDy=0;fillColor=#60a917;strokeColor=#2D7600;entryX=0.592;entryY=1;entryDx=0;entryDy=0;entryPerimeter=0;" edge="1" parent="1" source="gjJ8fdNzMMnaU77JGoAU-5" target="gjJ8fdNzMMnaU77JGoAU-2">
          <mxGeometry width="50" height="50" relative="1" as="geometry">
            <mxPoint x="410" y="590" as="sourcePoint" />
            <mxPoint x="270" y="490" as="targetPoint" />
            <Array as="points">
              <mxPoint x="680" y="750" />
              <mxPoint x="380" y="750" />
              <mxPoint x="350" y="750" />
              <mxPoint x="270" y="750" />
            </Array>
          </mxGeometry>
        </mxCell>
        <mxCell id="gjJ8fdNzMMnaU77JGoAU-16" value="" style="edgeStyle=isometricEdgeStyle;endArrow=none;html=1;rounded=0;fillColor=#008a00;strokeColor=#005700;" edge="1" parent="1">
          <mxGeometry width="50" height="100" relative="1" as="geometry">
            <mxPoint x="580" y="750" as="sourcePoint" />
            <mxPoint x="570" y="765" as="targetPoint" />
          </mxGeometry>
        </mxCell>
        <mxCell id="gjJ8fdNzMMnaU77JGoAU-17" value="Данные тренировки" style="text;html=1;align=center;verticalAlign=middle;resizable=0;points=[];autosize=1;strokeColor=none;fillColor=none;fontSize=10;" vertex="1" parent="1">
          <mxGeometry x="470" y="768" width="120" height="30" as="geometry" />
        </mxCell>
        <mxCell id="gjJ8fdNzMMnaU77JGoAU-18" value="" style="endArrow=classic;startArrow=classic;html=1;rounded=0;fillColor=#6a00ff;strokeColor=#3700CC;entryX=0.592;entryY=1;entryDx=0;entryDy=0;entryPerimeter=0;exitX=0.583;exitY=1.017;exitDx=0;exitDy=0;exitPerimeter=0;" edge="1" parent="1" source="gjJ8fdNzMMnaU77JGoAU-3">
          <mxGeometry width="50" height="50" relative="1" as="geometry">
            <mxPoint x="560" y="500" as="sourcePoint" />
            <mxPoint x="151" y="210" as="targetPoint" />
            <Array as="points">
              <mxPoint x="410" y="660" />
              <mxPoint x="260" y="660" />
              <mxPoint x="230" y="660" />
              <mxPoint x="150" y="660" />
            </Array>
          </mxGeometry>
        </mxCell>
        <mxCell id="gjJ8fdNzMMnaU77JGoAU-19" value="" style="endArrow=classic;html=1;rounded=0;exitX=1;exitY=0.25;exitDx=0;exitDy=0;entryX=0.842;entryY=-0.05;entryDx=0;entryDy=0;entryPerimeter=0;startArrow=classic;startFill=1;fillColor=#e3c800;strokeColor=#B09500;" edge="1" parent="1" source="gjJ8fdNzMMnaU77JGoAU-4" target="gjJ8fdNzMMnaU77JGoAU-5">
          <mxGeometry width="50" height="50" relative="1" as="geometry">
            <mxPoint x="760" y="610" as="sourcePoint" />
            <mxPoint x="810" y="555" as="targetPoint" />
            <Array as="points">
              <mxPoint x="720" y="455" />
            </Array>
          </mxGeometry>
        </mxCell>
        <mxCell id="gjJ8fdNzMMnaU77JGoAU-20" value="" style="edgeStyle=isometricEdgeStyle;endArrow=none;html=1;rounded=0;fillColor=#e3c800;strokeColor=#B09500;" edge="1" parent="1">
          <mxGeometry width="50" height="100" relative="1" as="geometry">
            <mxPoint x="730" y="462.5" as="sourcePoint" />
            <mxPoint x="720" y="477.5" as="targetPoint" />
          </mxGeometry>
        </mxCell>
        <mxCell id="gjJ8fdNzMMnaU77JGoAU-21" value="Результат" style="text;html=1;align=center;verticalAlign=middle;resizable=0;points=[];autosize=1;strokeColor=none;fillColor=none;fontSize=10;" vertex="1" parent="1">
          <mxGeometry x="720" y="440" width="70" height="30" as="geometry" />
        </mxCell>
        <mxCell id="gjJ8fdNzMMnaU77JGoAU-22" value="Инструкции по работе" style="text;html=1;align=center;verticalAlign=middle;resizable=0;points=[];autosize=1;strokeColor=none;fillColor=none;rotation=0;fontSize=10;" vertex="1" parent="1">
          <mxGeometry x="300" y="120" width="130" height="30" as="geometry" />
        </mxCell>
        <mxCell id="gjJ8fdNzMMnaU77JGoAU-23" value="" style="endArrow=classic;startArrow=classic;html=1;rounded=0;entryX=0.833;entryY=0;entryDx=0;entryDy=0;exitX=0.833;exitY=0;exitDx=0;exitDy=0;fillColor=#76608a;strokeColor=#432D57;entryPerimeter=0;exitPerimeter=0;" edge="1" parent="1" source="gjJ8fdNzMMnaU77JGoAU-2" target="gjJ8fdNzMMnaU77JGoAU-1">
          <mxGeometry width="50" height="50" relative="1" as="geometry">
            <mxPoint x="420" y="290" as="sourcePoint" />
            <mxPoint x="250" y="200" as="targetPoint" />
            <Array as="points">
              <mxPoint x="300" y="110" />
              <mxPoint x="160" y="110" />
            </Array>
          </mxGeometry>
        </mxCell>
        <mxCell id="gjJ8fdNzMMnaU77JGoAU-24" value="" style="endArrow=none;startArrow=classic;html=1;rounded=0;entryX=0.833;entryY=0;entryDx=0;entryDy=0;exitX=0.833;exitY=0;exitDx=0;exitDy=0;fillColor=#76608a;strokeColor=#432D57;entryPerimeter=0;exitPerimeter=0;startFill=1;endFill=0;" edge="1" parent="1" source="gjJ8fdNzMMnaU77JGoAU-3">
          <mxGeometry width="50" height="50" relative="1" as="geometry">
            <mxPoint x="440" y="240" as="sourcePoint" />
            <mxPoint x="300" y="150" as="targetPoint" />
            <Array as="points">
              <mxPoint x="440" y="110" />
              <mxPoint x="300" y="110" />
            </Array>
          </mxGeometry>
        </mxCell>
        <mxCell id="gjJ8fdNzMMnaU77JGoAU-26" value="" style="edgeStyle=isometricEdgeStyle;endArrow=none;html=1;rounded=0;fillColor=#76608a;strokeColor=#432D57;" edge="1" parent="1">
          <mxGeometry width="50" height="100" relative="1" as="geometry">
            <mxPoint x="400" y="110" as="sourcePoint" />
            <mxPoint x="390" y="125" as="targetPoint" />
          </mxGeometry>
        </mxCell>
        <mxCell id="gjJ8fdNzMMnaU77JGoAU-27" value="Устав образовательной организации" style="text;html=1;align=center;verticalAlign=middle;resizable=0;points=[];autosize=1;strokeColor=none;fillColor=none;rotation=0;fontSize=10;" vertex="1" parent="1">
          <mxGeometry x="25" y="670" width="190" height="30" as="geometry" />
        </mxCell>
        <mxCell id="gjJ8fdNzMMnaU77JGoAU-28" value="" style="edgeStyle=isometricEdgeStyle;endArrow=none;html=1;rounded=0;fillColor=#6a00ff;strokeColor=#3700CC;" edge="1" parent="1">
          <mxGeometry width="50" height="100" relative="1" as="geometry">
            <mxPoint x="170" y="660" as="sourcePoint" />
            <mxPoint x="160" y="675" as="targetPoint" />
          </mxGeometry>
        </mxCell>
        <mxCell id="gjJ8fdNzMMnaU77JGoAU-29" value="" style="endArrow=classic;html=1;rounded=0;entryX=0.25;entryY=0;entryDx=0;entryDy=0;" edge="1" parent="1" target="gjJ8fdNzMMnaU77JGoAU-2">
          <mxGeometry width="50" height="50" relative="1" as="geometry">
            <mxPoint x="180" y="180" as="sourcePoint" />
            <mxPoint x="240" y="180" as="targetPoint" />
            <Array as="points">
              <mxPoint x="230" y="180" />
            </Array>
          </mxGeometry>
        </mxCell>
        <mxCell id="gjJ8fdNzMMnaU77JGoAU-30" value="" style="endArrow=classic;html=1;rounded=0;entryX=0.25;entryY=0;entryDx=0;entryDy=0;" edge="1" parent="1">
          <mxGeometry width="50" height="50" relative="1" as="geometry">
            <mxPoint x="320" y="280" as="sourcePoint" />
            <mxPoint x="370" y="340" as="targetPoint" />
            <Array as="points">
              <mxPoint x="370" y="280" />
            </Array>
          </mxGeometry>
        </mxCell>
        <mxCell id="gjJ8fdNzMMnaU77JGoAU-31" value="" style="endArrow=classic;html=1;rounded=0;entryX=0.25;entryY=0;entryDx=0;entryDy=0;" edge="1" parent="1">
          <mxGeometry width="50" height="50" relative="1" as="geometry">
            <mxPoint x="460" y="380" as="sourcePoint" />
            <mxPoint x="510" y="440" as="targetPoint" />
            <Array as="points">
              <mxPoint x="510" y="380" />
            </Array>
          </mxGeometry>
        </mxCell>
        <mxCell id="gjJ8fdNzMMnaU77JGoAU-32" value="" style="endArrow=classic;html=1;rounded=0;entryX=0.25;entryY=0;entryDx=0;entryDy=0;" edge="1" parent="1">
          <mxGeometry width="50" height="50" relative="1" as="geometry">
            <mxPoint x="600" y="480" as="sourcePoint" />
            <mxPoint x="650" y="540" as="targetPoint" />
            <Array as="points">
              <mxPoint x="650" y="480" />
            </Array>
          </mxGeometry>
        </mxCell>
        <mxCell id="gjJ8fdNzMMnaU77JGoAU-34" value="" style="endArrow=classic;startArrow=classic;html=1;rounded=0;fillColor=#d80073;strokeColor=#A50040;exitX=0.175;exitY=1;exitDx=0;exitDy=0;exitPerimeter=0;entryX=0.183;entryY=1.017;entryDx=0;entryDy=0;entryPerimeter=0;" edge="1" parent="1" source="gjJ8fdNzMMnaU77JGoAU-5" target="gjJ8fdNzMMnaU77JGoAU-2">
          <mxGeometry width="50" height="50" relative="1" as="geometry">
            <mxPoint x="480" y="461" as="sourcePoint" />
            <mxPoint x="221" y="310" as="targetPoint" />
            <Array as="points">
              <mxPoint x="640" y="720" />
              <mxPoint x="330" y="720" />
              <mxPoint x="300" y="720" />
              <mxPoint x="220" y="720" />
            </Array>
          </mxGeometry>
        </mxCell>
        <mxCell id="gjJ8fdNzMMnaU77JGoAU-36" value="" style="endArrow=classic;startArrow=classic;html=1;rounded=0;fillColor=#d80073;strokeColor=#A50040;exitX=0.317;exitY=1.033;exitDx=0;exitDy=0;exitPerimeter=0;" edge="1" parent="1" source="gjJ8fdNzMMnaU77JGoAU-4">
          <mxGeometry width="50" height="50" relative="1" as="geometry">
            <mxPoint x="781" y="529" as="sourcePoint" />
            <mxPoint x="360" y="400" as="targetPoint" />
            <Array as="points">
              <mxPoint x="520" y="720" />
              <mxPoint x="480" y="720" />
              <mxPoint x="440" y="720" />
              <mxPoint x="360" y="720" />
            </Array>
          </mxGeometry>
        </mxCell>
        <mxCell id="gjJ8fdNzMMnaU77JGoAU-37" value="Уровень сложности" style="text;html=1;align=center;verticalAlign=middle;resizable=0;points=[];autosize=1;strokeColor=none;fillColor=none;rotation=0;fontSize=10;" vertex="1" parent="1">
          <mxGeometry x="520" y="680" width="110" height="30" as="geometry" />
        </mxCell>
        <mxCell id="gjJ8fdNzMMnaU77JGoAU-39" value="" style="edgeStyle=isometricEdgeStyle;endArrow=none;html=1;rounded=0;fillColor=#d80073;strokeColor=#A50040;" edge="1" parent="1">
          <mxGeometry width="50" height="100" relative="1" as="geometry">
            <mxPoint x="545" y="704" as="sourcePoint" />
            <mxPoint x="535" y="719" as="targetPoint" />
          </mxGeometry>
        </mxCell>
      </root>
    </mxGraphModel>
  </diagram>
</mxfile>
